<?xml version="1.0" encoding="utf-8"?>
<!-- Generator: Adobe Illustrator 18.1.0, SVG Export Plug-In . SVG Version: 6.00 Build 0)  -->
<!DOCTYPE svg PUBLIC "-//W3C//DTD SVG 1.1//EN" "http://www.w3.org/Graphics/SVG/1.1/DTD/svg11.dtd">
<svg version="1.1" id="Layer_1" xmlns="http://www.w3.org/2000/svg" xmlns:xlink="http://www.w3.org/1999/xlink" x="0px" y="0px"
	 viewBox="0 0 561.8 499.8" enable-background="new 0 0 561.8 499.8" xml:space="preserve">
<g>
	<g>
		<path fill="none" stroke="#FFFFFF" stroke-width="24" stroke-miterlimit="10" d="M280.9,147.4c67.4,0,129.9,9.7,177.1,25.9
			c56.8,19.6,91.8,49.2,91.8,76.1c0,28-37,59.5-98.1,79.7c-46.2,15.3-106.9,23.3-170.8,23.3c-65.6,0-127.6-7.5-174.3-23.4
			c-59-20.2-94.6-52.1-94.6-79.6c0-26.6,33.4-56.1,89.4-75.6C148.8,157.3,212.9,147.4,280.9,147.4z"/>
		<path fill="none" stroke="#FFFFFF" stroke-width="24" stroke-miterlimit="10" d="M192.1,198.7C225.8,140.4,265.4,91,303,58.2
			c45.4-39.5,88.5-54.9,111.8-41.5c24.2,14,33,61.8,20.1,124.8c-9.8,47.6-33.2,104.2-65.2,159.6c-32.7,56.8-70.2,106.8-107.4,139.3
			c-47,41.1-92.4,55.9-116.2,42.2c-23.1-13.3-31.9-56.9-20.8-115.2C134.7,318.1,158.1,257.6,192.1,198.7z"/>
		<path fill="none" stroke="#FFFFFF" stroke-width="24" stroke-miterlimit="10" d="M192.2,301.3C158.4,243,135.5,184,125.9,135
			c-11.5-59-3.4-104.1,19.9-117.6c24.2-14,70.1,2.2,118.1,44.9c36.4,32.3,73.7,80.8,105.7,136.2c32.8,56.7,57.5,114.2,67,162.6
			c12.1,61.2,2.3,108-21.5,121.7c-23.1,13.3-65.2-0.8-110.2-39.5C266.9,410.7,226.3,360.1,192.2,301.3z"/>
	</g>
	<g>
		<g>
			<g>
				<path fill="#FFFFFF" d="M252.6,260.9v35.6h4c0.2-10,8.5-18,18.8-18c10.3,0,18.6,8,18.8,18h4.4v-35.6H252.6z"/>
			</g>
		</g>
		<g>
			<g>
				<path fill="#FFFFFF" d="M218.6,296.5h35.9l1.3-2.3c-0.8-0.3-1.4-1-1.1-2c0.8-2.7,1.8-5.5,3.3-7.9c1.2-2.1,3.1-4.3,3.4-6.7
					c0.1-0.9,0.7-1.7,1.7-1.7c0.3,0,0.6,0.1,0.8,0.2c0.2-1,0.4-2,0.8-2.9c0.3-0.9,1.1-1.5,2.1-1.2c0.5,0.1,1,0.6,1.2,1.1l7.7-13.3
					l21.2,36.7h35.9L280,205l9.2-15.9l-6.1-3.5v0l-7.3,12.6l-0.3,0.2l-7.2-12.5l-6.1,3.5l9.2,15.9L218.6,296.5z"/>
			</g>
		</g>
	</g>
</g>
</svg>
